<?xml version="1.0" standalone="no"?>
<!DOCTYPE svg PUBLIC "-//W3C//DTD SVG 20010904//EN"
 "http://www.w3.org/TR/2001/REC-SVG-20010904/DTD/svg10.dtd">
<svg version="1.0" xmlns="http://www.w3.org/2000/svg"
 width="200.000000pt" height="200.000000pt" viewBox="0 0 200.000000 200.000000"
 preserveAspectRatio="xMidYMid meet">

<g transform="translate(0.000000,200.000000) scale(0.100000,-0.100000)"
fill="#e60000" stroke="none">
<path d="M982 1868 c-8 -8 -12 -58 -12 -169 l0 -157 -122 -4 c-169 -6 -228
-35 -281 -133 -22 -40 -22 -46 -22 -570 0 -524 0 -530 22 -570 25 -47 64 -85
113 -111 31 -17 64 -19 300 -22 185 -2 278 0 308 9 65 18 116 60 146 121 l26
53 0 520 0 520 -28 55 c-21 43 -39 62 -80 86 -61 37 -95 44 -224 44 l-98 0 -2
167 c-3 141 -5 168 -18 171 -9 1 -21 -3 -28 -10z m-12 -608 l0 -220 -186 0
-185 0 3 163 c3 163 3 164 32 201 45 60 92 76 224 76 l112 0 0 -220z m338 199
c26 -13 54 -38 70 -62 26 -39 27 -46 30 -199 l4 -158 -191 0 -191 0 0 220 0
220 117 0 c98 0 124 -3 161 -21z m100 -812 l-3 -334 -28 -42 c-50 -76 -72 -81
-374 -81 -161 0 -273 4 -290 11 -15 5 -41 22 -57 37 -54 51 -56 63 -56 417 l0
325 406 0 405 0 -3 -333z"/>
</g>
</svg>
