<?xml version="1.0" standalone="no"?>
<!DOCTYPE svg PUBLIC "-//W3C//DTD SVG 20010904//EN"
 "http://www.w3.org/TR/2001/REC-SVG-20010904/DTD/svg10.dtd">
<svg version="1.0" xmlns="http://www.w3.org/2000/svg"
 width="200.000000pt" height="200.000000pt" viewBox="0 0 200.000000 200.000000"
 preserveAspectRatio="xMidYMid meet">

<g transform="translate(0.000000,200.000000) scale(0.100000,-0.100000)"
fill="#000000" stroke="none">
<path d="M879 1740 c-93 -11 -181 -37 -274 -80 -372 -172 -494 -562 -277 -885
61 -91 62 -104 17 -202 -39 -86 -86 -136 -162 -175 -95 -48 -91 -63 17 -62
124 2 351 66 458 130 27 15 32 15 98 -9 38 -14 117 -33 174 -42 363 -61 733
94 870 365 44 88 60 155 60 254 -1 114 -11 161 -60 262 -91 189 -304 353 -539
414 -134 36 -253 45 -382 30z m366 -80 c164 -44 334 -150 428 -266 191 -236
182 -519 -24 -725 -210 -211 -568 -273 -897 -154 l-72 26 -42 -25 c-73 -42
-287 -116 -337 -116 -7 0 3 18 24 41 44 48 90 142 106 215 l12 52 -51 69
c-267 355 -63 787 423 899 91 21 327 12 430 -16z"/>
</g>
</svg>
