<?xml version="1.0" standalone="no"?>
<!DOCTYPE svg PUBLIC "-//W3C//DTD SVG 20010904//EN"
 "http://www.w3.org/TR/2001/REC-SVG-20010904/DTD/svg10.dtd">
<svg version="1.0" xmlns="http://www.w3.org/2000/svg"
 width="200.000000pt" height="200.000000pt" viewBox="0 0 200.000000 200.000000"
 preserveAspectRatio="xMidYMid meet">

<g transform="translate(0.000000,200.000000) scale(0.100000,-0.100000)"
fill="#000000" stroke="none">
<path d="M655 1921 c-49 -12 -83 -40 -105 -85 -20 -43 -20 -52 -18 -839 3
-789 3 -796 24 -824 11 -15 36 -38 54 -50 33 -23 35 -23 420 -23 385 0 387 0
420 23 18 12 43 35 54 50 21 28 21 32 21 835 l0 807 -22 35 c-12 19 -37 44
-55 55 -31 19 -52 20 -398 22 -201 1 -379 -2 -395 -6z m786 -89 l29 -33 -2
-795 -3 -796 -28 -24 -28 -24 -379 0 -379 0 -28 24 -28 24 -3 795 -2 794 21
27 c12 15 31 32 43 36 11 5 187 8 389 7 l369 -2 29 -33z"/>
<path d="M671 1736 c-8 -9 -10 -194 -9 -672 l3 -659 359 -3 c281 -2 361 1 368
10 4 7 8 306 8 663 0 493 -3 654 -12 663 -19 19 -701 17 -717 -2z m669 -661
l0 -615 -310 0 -310 0 0 615 0 615 310 0 310 0 0 -615z"/>
<path d="M761 301 c-21 -38 3 -41 270 -39 239 3 254 4 257 22 2 10 -2 22 -10
27 -7 5 -124 9 -260 9 -233 0 -248 -1 -257 -19z"/>
</g>
</svg>
