<?xml version="1.0" standalone="no"?>
<!DOCTYPE svg PUBLIC "-//W3C//DTD SVG 20010904//EN"
 "http://www.w3.org/TR/2001/REC-SVG-20010904/DTD/svg10.dtd">
<svg version="1.0" xmlns="http://www.w3.org/2000/svg"
 width="200.000000pt" height="200.000000pt" viewBox="0 0 200.000000 200.000000"
 preserveAspectRatio="xMidYMid meet">

<g transform="translate(0.000000,200.000000) scale(0.100000,-0.100000)"
fill="#currentColor" stroke="none">
<path d="M233 1383 c-13 -2 -32 -16 -43 -30 -19 -25 -20 -39 -20 -392 0 -345
2 -367 20 -391 l19 -25 758 -3 c417 -2 773 0 790 3 61 11 63 22 63 424 l0 360
-24 28 -24 28 -759 1 c-417 1 -768 0 -780 -3z m1392 -80 c-27 -14 -180 -92
-339 -174 l-289 -147 -186 93 c-102 51 -256 130 -341 174 l-155 81 680 -1 680
0 -50 -26z m-1187 -97 c114 -57 215 -110 225 -118 16 -12 -4 -34 -213 -243
l-230 -230 0 348 c0 191 2 347 5 347 3 0 99 -47 213 -104z m1332 -236 c0 -187
-3 -340 -8 -340 -4 0 -108 101 -231 224 l-224 224 44 25 c57 33 402 206 412
206 4 1 7 -152 7 -339z m-900 16 l125 -64 132 67 133 66 225 -225 c124 -124
225 -228 225 -232 0 -5 -322 -8 -715 -8 -393 0 -715 3 -715 7 0 12 444 453
455 452 5 0 66 -29 135 -63z"/>
</g>
</svg>
